<?xml version="1.0" encoding="utf-8"?>
<!-- Generator: Adobe Illustrator 16.0.0, SVG Export Plug-In . SVG Version: 6.00 Build 0)  -->
<!DOCTYPE svg PUBLIC "-//W3C//DTD SVG 1.1//EN" "http://www.w3.org/Graphics/SVG/1.1/DTD/svg11.dtd">
<svg version="1.1" id="Layer_1" xmlns="http://www.w3.org/2000/svg" xmlns:xlink="http://www.w3.org/1999/xlink" x="0px" y="0px"
	 width="100px" height="100px" viewBox="0 0 100 100" style="enable-background:new 0 0 100 100;" xml:space="preserve">
<g>
	<path style="fill:#B5520D;" d="M100,94c0,3.313-2.687,6-6,6H6c-3.313,0-6-2.687-6-6V6c0-3.313,2.687-6,6-6h88c3.313,0,6,2.687,6,6
		V94z"/>
	<path style="fill:#EBA264;" d="M100,93c0,3.313-2.687,6-6,6H6c-3.313,0-6-2.687-6-6V9c0-3.313,2.687-6,6-6h88c3.313,0,6,2.687,6,6
		V93z"/>
	<linearGradient id="SVGID_2_" gradientUnits="userSpaceOnUse" x1="50" y1="4" x2="50" y2="99.9995">
		<stop  offset="0" style="stop-color:#DA7C3D"/>
		<stop  offset="1" style="stop-color:#C84C00"/>
	</linearGradient>
	<path style="fill:url(#SVGID_2_);" d="M100,94c0,3.313-2.687,6-6,6H6c-3.313,0-6-2.687-6-6V10c0-3.313,2.687-6,6-6h88
		c3.313,0,6,2.687,6,6V94z"/>
	<path style="fill-rule:evenodd;clip-rule:evenodd;fill:#FEFEFE;" d="M44.75,35.161c0.279,1.376,1.039,2.474,1.996,3.458
		c3.148,3.241,7.017,5.571,10.554,8.319c1.71,1.328,3.417,2.657,5.126,3.986c0.732,0.774,1.488,1.527,2.193,2.325
		c1.846,2.091,3.035,4.432,2.659,7.334c-1.001,4.427-4.005,7.141-7.825,9.156c-2.916,1.536-6.021,2.553-9.21,3.324
		c-8.648,2.089-17.462,2.622-26.314,2.765c-2.093,0.034-4.186,0.074-6.277,0.11c-0.935-0.3-1.899-0.159-2.849-0.178
		c-2.025-0.041-4.053-0.013-6.078-0.013c-0.012-0.16-0.025-0.32-0.035-0.48c0.386-0.03,0.772-0.076,1.158-0.088
		c5.095-0.157,10.178-0.464,15.247-0.995c6.636-0.693,13.224-1.682,19.562-3.825c3.502-1.185,6.893-2.699,9.39-5.625
		c0.786-0.921,1.484-1.896,1.562-3.172c0.279-0.916-0.188-1.642-0.639-2.35c-0.679-1.068-1.586-1.938-2.534-2.763
		c-2.841-2.473-5.969-4.577-8.902-6.93c-3.573-2.865-7.129-5.755-8.781-10.268c-0.012-0.104-0.021-0.209-0.033-0.313
		c0.024-0.071,0.018-0.14-0.021-0.205c-0.381-3.039,0.813-5.638,2.275-8.162c2.483-3.298,5.744-5.625,9.425-7.365
		c4.444-2.101,9.187-3.268,13.993-4.185c5.508-1.051,11.084-1.511,16.671-1.86c4.132-0.155,8.265-0.234,12.398-0.076
		c0.006,0.108,0.011,0.218,0.017,0.326c-2.742,0.207-5.49,0.35-8.213,0.758c-3.969,0.338-7.9,0.95-11.805,1.728
		c-5.754,1.147-11.422,2.592-16.678,5.31c-2.375,1.229-4.586,2.702-6.209,4.881C45.463,31.582,44.587,33.194,44.75,35.161z"/>
	<path style="fill-rule:evenodd;clip-rule:evenodd;fill:#B4520E;" d="M17.651,75.938c2.092-0.037,4.185-0.077,6.277-0.11
		c8.853-0.143,17.666-0.676,26.314-2.765c3.188-0.771,6.294-1.788,9.21-3.324c3.82-2.015,6.824-4.729,7.825-9.156
		c-0.073,3.5-1.755,6.158-4.407,8.269c-4.236,3.373-9.299,4.786-14.442,5.983c-3.788,0.882-7.649,1.301-11.502,1.752
		c-2.073,0.243-4.167,0.44-6.252,0.44c-4.017,0-8.034,0.551-12.036,0.208c-3.629-0.311-7.28,0.147-10.895-0.579
		c1.184,0.103,2.32-0.297,3.497-0.257c1.989,0.066,3.969-0.094,5.95-0.226C17.387,76.162,17.553,76.124,17.651,75.938z"/>
	<path style="fill-rule:evenodd;clip-rule:evenodd;fill:#B4520E;" d="M34.752,39.253c1.652,4.512,5.208,7.402,8.781,10.268
		c2.934,2.353,6.062,4.457,8.902,6.93c0.948,0.825,1.855,1.695,2.534,2.763c0.45,0.708,0.918,1.434,0.639,2.35
		c-1.605-2.557-3.874-4.449-6.257-6.226c-3.416-2.543-6.842-5.084-10-7.945c-1.979-1.793-3.517-3.954-4.449-6.502
		C34.703,40.344,34.748,39.803,34.752,39.253z"/>
	<path style="fill-rule:evenodd;clip-rule:evenodd;fill:#B4520E;" d="M75.504,20.324c-2.725,0.142-5.368,0.786-8.021,1.348
		c-5.347,1.132-10.583,2.608-15.399,5.28c-2.534,1.405-4.832,3.091-6.295,5.697c-0.33,0.587-0.594,1.18-0.65,1.855
		c-0.131,0.219-0.26,0.438-0.389,0.657c-0.163-1.967,0.713-3.579,1.822-5.071c1.623-2.179,3.834-3.652,6.209-4.881
		c5.256-2.718,10.924-4.163,16.678-5.31c3.904-0.778,7.836-1.39,11.805-1.728c0.471,0.317,0.998,0.155,1.498,0.159
		c2.602,0.019,5.203,0.01,7.806,0.011c0,0.146,0,0.292,0,0.438c-4.011,0.133-7.996,0.524-11.972,1.057
		C77.56,19.975,76.494,19.891,75.504,20.324z"/>
</g>
</svg>
